<?xml version="1.0" encoding="UTF-8" standalone="no"?>
<svg
   xmlns:dc="http://purl.org/dc/elements/1.1/"
   xmlns:cc="http://creativecommons.org/ns#"
   xmlns:rdf="http://www.w3.org/1999/02/22-rdf-syntax-ns#"
   xmlns:svg="http://www.w3.org/2000/svg"
   xmlns="http://www.w3.org/2000/svg"
   xmlns:sodipodi="http://sodipodi.sourceforge.net/DTD/sodipodi-0.dtd"
   xmlns:inkscape="http://www.inkscape.org/namespaces/inkscape"
   version="1.1"
   id="svg949"
   xml:space="preserve"
   width="1091"
   height="300"
   viewBox="0 0 1091 300"
   sodipodi:docname="logopresentacion_blanco.svg"
   inkscape:version="1.0.2-2 (e86c870879, 2021-01-15)"><metadata
     id="metadata955"><rdf:RDF><cc:Work
         rdf:about=""><dc:format>image/svg+xml</dc:format><dc:type
           rdf:resource="http://purl.org/dc/dcmitype/StillImage" /><dc:title></dc:title></cc:Work></rdf:RDF></metadata><defs
     id="defs953"><clipPath
       clipPathUnits="userSpaceOnUse"
       id="clipPath965"><path
         d="M 0,1080 H 1080 V 0 H 0 Z"
         id="path963" /></clipPath></defs><sodipodi:namedview
     pagecolor="#ffffff"
     bordercolor="#666666"
     borderopacity="1"
     objecttolerance="10"
     gridtolerance="10"
     guidetolerance="10"
     inkscape:pageopacity="0"
     inkscape:pageshadow="2"
     inkscape:window-width="1920"
     inkscape:window-height="1051"
     id="namedview951"
     showgrid="false"
     inkscape:zoom="0.83639384"
     inkscape:cx="450.91525"
     inkscape:cy="384.26838"
     inkscape:window-x="-9"
     inkscape:window-y="-9"
     inkscape:window-maximized="1"
     inkscape:current-layer="g957"
     inkscape:document-rotation="0" /><g
     id="g957"
     inkscape:groupmode="layer"
     inkscape:label="LOGO FONDO BLANCO FULL COLOR"
     transform="matrix(1.3333333,0,0,-1.3333333,0,1440)"><g
       id="g967"
       transform="translate(223.16499,930.77757)"
       style="stroke-width:0.99975;stroke-miterlimit:4;stroke-dasharray:none;fill:#ffffff;fill-opacity:1"><path
         d="m 0,0 h -10.897 v 87.405 c 3.78,5.337 9.786,11.787 24.464,11.787 15.568,0 30.47,-13.122 30.47,-49.374 C 44.037,10.453 23.353,0 0,0 m 18.015,106.532 c -17.348,0 -25.354,-7.117 -28.912,-12.01 0,7.784 0.222,12.01 0.222,12.01 l -36.252,-4.004 c 0,0 -1.334,-7.561 1.112,-7.561 4.226,0 6.672,-0.667 6.895,-9.119 v -122.1 c -0.223,-8.451 -4.893,-9.119 -6.895,-9.119 -2.446,0 -1.112,-3.78 -1.112,-3.78 h 44.036 c 0,0 1.557,3.558 -0.89,3.558 -2.223,0 -7.116,0.445 -7.116,9.341 V -7.117 H 0 c 46.26,0 72.727,17.57 72.727,56.935 0,39.588 -26.022,56.714 -54.712,56.714"
         style="fill:#ffffff;fill-opacity:1;fill-rule:nonzero;stroke:none;stroke-width:0.99975;stroke-miterlimit:4;stroke-dasharray:none"
         id="path969" /></g><g
       id="g971"
       transform="translate(384.36469,1037.4573)"
       style="stroke:#282828;stroke-width:0.99975;stroke-miterlimit:4;stroke-dasharray:none;stroke-opacity:1"><path
         d="m 0,0 c 8.072,0 12.021,7.041 12.021,12.193 0,5.153 -3.949,12.023 -12.021,12.023 -5.496,0 -12.022,-4.637 -12.022,-12.023 C -12.022,4.122 -5.152,0 0,0"
         style="fill:#e27d14;fill-opacity:1;fill-rule:nonzero;stroke:#282828;stroke-width:0.99975;stroke-miterlimit:4;stroke-dasharray:none;stroke-opacity:1"
         id="path973" /></g><g
       id="g975"
       transform="translate(600.07369,925.77367)"
       style="stroke-width:0.99975;stroke-miterlimit:4;stroke-dasharray:none;fill:#ffffff;fill-opacity:1"><path
         d="m 0,0 c -2.002,0 -7.117,0.445 -7.117,9.342 v 63.829 c 0,26.911 -23.575,33.139 -40.032,33.139 -18.015,0 -25.132,-9.12 -27.579,-18.015 -7.117,14.233 -24.242,18.015 -36.919,18.015 -14.457,0 -23.129,-6.451 -25.577,-11.565 v 11.787 l -36.252,-4.004 c 0,0 -1.334,-7.339 1.113,-7.339 4.226,0 6.672,-0.667 6.894,-9.119 V 9.342 c -0.222,-8.452 -4.892,-9.119 -6.894,-9.119 -2.447,0 -1.113,-7.339 -1.113,-7.339 h 44.259 c 0,0 1.335,7.116 -1.112,7.116 -2.001,0 -6.895,0.445 -6.895,9.342 v 75.172 c 0,6.895 6.005,14.456 17.125,14.456 13.345,0 20.24,-9.564 20.24,-30.025 V 9.342 c 0,-8.452 -4.894,-9.119 -6.895,-9.119 -2.446,0 -1.111,-7.339 -1.111,-7.339 h 44.479 c 0,0 1.335,7.116 -1.111,7.116 -2.225,0 -7.117,0.445 -7.117,9.342 v 63.829 c 0,3.781 -0.445,7.34 -1.335,10.454 1.113,7.784 6.45,15.567 18.46,15.567 12.232,0 19.127,-9.786 19.127,-30.247 V 9.342 c 0,-8.452 -4.67,-9.119 -6.895,-9.119 -2.447,0 -1.111,-7.339 -1.111,-7.339 H 1.111 C 1.111,-7.116 2.445,0 0,0"
         style="fill:#ffffff;fill-opacity:1;fill-rule:nonzero;stroke:none;stroke-width:0.99975;stroke-miterlimit:4;stroke-dasharray:none"
         id="path977" /></g><g
       id="g979"
       transform="translate(708.33729,925.55207)"
       style="stroke-width:0.99975;stroke-miterlimit:4;stroke-dasharray:none;fill:#ffffff;fill-opacity:1"><path
         d="m 0,0 c -4.448,0 -6.672,0.667 -6.895,9.118 v 97.635 l -36.251,-3.558 c 0,0 -1.334,-7.117 1.112,-7.117 2.001,0 6.894,-0.445 6.894,-9.341 V 14.9 c 0,-6.894 -4.225,-14.456 -18.014,-14.456 -14.012,0 -19.35,9.564 -19.35,30.248 0,1.778 -0.223,76.061 -0.223,76.061 l -36.029,-3.558 c 0,0 -1.334,-7.117 0.89,-7.117 2.224,0 7.117,-0.445 7.117,-9.341 V 26.465 c 0,-27.132 25.131,-33.36 41.811,-33.36 14.235,0 20.907,4.892 24.243,11.788 0,-8.007 5.115,-12.01 11.565,-12.01 H 1.112 C 1.112,-7.117 2.224,0 0,0"
         style="fill:#ffffff;fill-opacity:1;fill-rule:nonzero;stroke:none;stroke-width:0.99975;stroke-miterlimit:4;stroke-dasharray:none"
         id="path981" /></g><g
       id="g983"
       transform="translate(137.74699,1052.138)"
       style="stroke-width:0.99975;stroke-miterlimit:4;stroke-dasharray:none;fill:#ffffff;fill-opacity:1"><path
         d="m 0,0 c -0.853,0.396 -7.082,3.226 -11.03,3.383 -1.58,0.063 -2.844,-1.301 -2.707,-2.877 l 0.009,-0.11 c 0.143,-1.643 0.733,-3.207 1.723,-4.525 3.883,-5.179 14.273,-19.934 18.624,-34.983 2.8,-9.167 4.265,-19.44 4.265,-30.471 0,-42.279 -23.461,-77.226 -57.919,-77.226 -34.213,0 -56.94,34.947 -56.94,77.226 0,21.735 5.886,40.52 16.231,53.704 l -0.02,0.002 c 13.303,18.083 26.707,22.492 26.707,22.492 3.672,1.05 6.741,1.692 9.205,1.922 2.466,0.231 4.986,0.113 7.559,-0.352 2.576,-0.464 4.575,-1.719 6.002,-3.761 0.23,-0.334 0.378,-0.641 0.484,-0.934 0.177,-0.488 0.201,-0.926 0.031,-1.3 -0.269,-0.598 -0.733,-1.117 -1.389,-1.563 -0.656,-0.444 -1.458,-0.849 -2.408,-1.214 -0.948,-0.366 -1.78,-0.874 -2.498,-1.524 -2.32,-2.931 -3.698,-6.052 -4.135,-9.358 -0.434,-3.307 0.331,-6.6 2.298,-9.884 1.041,-1.634 2.153,-2.921 3.338,-3.858 1.796,-1.32 4.053,-2.089 6.767,-2.312 2.717,-0.221 5.509,0.486 8.375,2.121 2.869,1.637 5.364,3.798 7.486,6.479 2.123,2.683 3.004,6.805 2.637,12.369 -0.189,0.851 -0.401,1.647 -0.616,2.438 -1.963,7.209 -5.025,11.921 -9.208,14.088 -1.703,0.882 -3.593,1.574 -5.663,2.086 -3.208,0.518 -6.463,0.882 -9.763,1.06 -0.797,0.043 -1.599,0.06 -2.4,0.082 -0.856,0.024 -1.708,0.062 -2.568,0.062 -4.075,0 -8.087,-0.288 -12.027,-0.807 -42.143,-5.553 -75.462,-39.82 -75.462,-82.283 0,-46.188 34.703,-86.023 87.489,-86.023 54.252,0 88.222,39.835 88.222,86.023 C 40.699,-40.269 24.246,-14.694 0,0"
         style="fill:#ffffff;fill-opacity:1;fill-rule:nonzero;stroke:none;stroke-width:0.99975;stroke-miterlimit:4;stroke-dasharray:none"
         id="path985" /></g><g
       id="g987"
       transform="translate(83.048289,927.72387)"
       style="stroke:#282828;stroke-width:0.99975;stroke-miterlimit:4;stroke-dasharray:none;stroke-opacity:1"><path
         d="m 0,0 c 0,-5.475 4.659,-8.27 8.153,-8.27 5.474,0 8.153,4.776 8.153,8.27 0,3.494 -2.679,8.153 -8.153,8.153 C 4.426,8.153 0,5.009 0,0"
         style="fill:#e27d14;fill-opacity:1;fill-rule:nonzero;stroke:#282828;stroke-width:0.99975;stroke-miterlimit:4;stroke-dasharray:none;stroke-opacity:1"
         id="path989" /></g><g
       id="g991"
       transform="translate(761.92619,918.10187)"
       style="stroke-width:0.99975;stroke-miterlimit:4;stroke-dasharray:none;fill:#ffffff;fill-opacity:1"><path
         d="m 0,0 c 3.421,0 6.769,0.454 10.037,1.362 13.072,3.5 20.151,10.952 21.243,22.36 0.777,7.128 -1.867,13.287 -7.937,18.473 -3.892,3.5 -11.595,8.035 -23.11,13.611 l -13.072,6.222 c -11.053,5.313 -18.442,9.722 -22.178,13.222 -5.134,4.794 -7.702,11.083 -7.702,18.861 0,4.925 1.554,9.85 4.669,14.778 3.42,5.444 8.089,9.528 14.005,12.25 6.846,3.238 13.774,4.861 20.776,4.861 6.847,0 15.174,-1.88 24.978,-5.639 -1.4,5.183 -1.4,8.489 0,9.917 1.868,1.166 3.578,1.555 5.136,1.166 1.711,-0.388 3.111,-1.622 4.202,-3.694 l 2.567,-6.806 4.436,-11.666 c 3.268,-8.817 4.902,-14 4.902,-15.556 0,-3.5 -1.868,-4.928 -5.602,-4.278 -1.868,0.258 -3.815,1.814 -5.837,4.667 -5.45,7.389 -9.804,12.314 -13.073,14.778 -4.048,3.239 -9.259,5.25 -15.639,6.028 -7.627,0.905 -13.696,-0.52 -18.207,-4.278 -3.583,-3.242 -4.826,-6.936 -3.736,-11.083 1.71,-6.095 10.191,-12.512 25.445,-19.25 l 8.871,-3.889 C 29.179,70.323 38.67,64.877 43.653,60.083 49.408,54.378 52.677,46.6 53.457,36.75 54.7,19.639 47.154,6.351 30.813,-3.11 21.319,-8.425 9.958,-11.084 -3.269,-11.084 c -8.56,0 -16.419,1.168 -23.577,3.5 -13.072,4.668 -20.466,12.184 -22.176,22.558 -1.09,6.348 1.32,11.599 7.236,15.748 3.422,2.203 7.238,3.306 11.438,3.306 4.203,0 7.781,-1.298 10.739,-3.888 2.954,-2.595 4.435,-5.575 4.435,-8.946 0,-4.927 -2.648,-8.621 -7.937,-11.083 C -16.888,3.37 -9.184,0 0,0"
         style="fill:#ffffff;fill-opacity:1;fill-rule:nonzero;stroke:none;stroke-width:0.99975;stroke-miterlimit:4;stroke-dasharray:none"
         id="path993" /></g><g
       id="g995"
       transform="translate(355.99699,924.32837)"
       style="stroke-width:0.99975;stroke-miterlimit:4;stroke-dasharray:none;fill:#ffffff;fill-opacity:1"><path
         d="m 0,0 c -0.163,0.011 -0.325,0.021 -0.487,0.033 h -0.017 l 0.001,0.001 C -11.065,0.855 -20.469,4.938 -20.469,26.973 V 83.95 h 42.513 v 8.008 h -42.513 v 6.582 h 42.513 v 8.007 h -40.125 l -2.388,0.047 0.223,16.68 h -11.566 c -1.556,-11.12 -15.123,-16.903 -28.69,-16.903 l -4.448,0.223 v -7.34 h 16.237 V 25.861 c 0,-31.33 27.143,-32.87 47.591,-32.918 4.89,-0.018 4.581,3.972 4.581,3.972 C 3.547,-0.615 1.074,-0.106 0,0"
         style="fill:#ffffff;fill-opacity:1;fill-rule:nonzero;stroke:none;stroke-width:0.99975;stroke-miterlimit:4;stroke-dasharray:none"
         id="path997" /></g><g
       id="g999"
       transform="translate(407.00529,942.22977)"
       style="stroke:#282828;stroke-width:0.99975;stroke-miterlimit:4;stroke-dasharray:none;stroke-opacity:1"><path
         d="m 0,0 c -4.747,0.56 -9.214,-0.177 -12.753,-1.826 -0.083,1.463 -0.131,3.027 -0.131,4.73 v 10.749 h -0.161 v 74.979 h -3.787 -12.132 V 80.625 74.043 66.036 13.653 6.66 1.946 c 0,-20.213 14.637,-27.211 25.86,-28.141 0.003,0 0.007,-0.001 0.01,-0.001 10.333,-1.221 19.402,3.654 20.256,10.888 C 18.017,-8.073 10.332,-1.22 0,0"
         style="fill:#e27d14;fill-opacity:1;fill-rule:nonzero;stroke:#282828;stroke-width:0.99975;stroke-miterlimit:4;stroke-dasharray:none;stroke-opacity:1"
         id="path1001" /></g></g></svg>
